<svg version="1.1" xmlns="http://www.w3.org/2000/svg" width="600" height="350"><defs><clipPath id="pOOdUZwinxCq"><path fill="none" stroke="none" d="M 5.5 5.5 L 595.5 5.5 L 595.5 345.5 L 5.5 345.5 L 5.5 5.5"/></clipPath><clipPath id="UhZzQxNQaiTm"><path fill="none" stroke="none" d="M 5.5 5.5 L 595.5 5.5 L 595.5 345.5 L 5.5 345.5 L 5.5 5.5"/></clipPath><clipPath id="fZuiiFXDrMVN"><path fill="none" stroke="none" d="M 5.5 5.5 L 595.5 5.5 L 595.5 345.5 L 5.5 345.5 L 5.5 5.5"/></clipPath><clipPath id="eeLcfFhNlqdp"><path fill="none" stroke="none" d="M 5.5 5.5 L 595.5 5.5 L 595.5 345.5 L 5.5 345.5 L 5.5 5.5"/></clipPath><clipPath id="QNdhwXXLduMU"><path fill="none" stroke="none" d="M 5.5 5.5 L 595.5 5.5 L 595.5 345.5 L 5.5 345.5 L 5.5 5.5"/></clipPath></defs><path fill="none" stroke="rgb(229,229,229)" paint-order="fill" d="M 5.5 5.5 L 595.5 5.5 L 595.5 345.5 L 5.5 345.5 L 5.5 5.5" stroke-opacity="1" stroke-linejoin="bevel" stroke-miterlimit="10" stroke-dasharray=""/><path fill="rgb(49,130,189)" stroke="rgb(255,255,255)" paint-order="fill" d="M 359.5 175.5 A 157.3333282470703 157.3333282470703 0 0 0 280.8333319058778 39.24533858366186 L 202.1666717529297 175.5 Z" fill-opacity="1" clip-path="url(#fZuiiFXDrMVN)" stroke-opacity="1" stroke-linejoin="bevel" stroke-miterlimit="10" stroke-dasharray=""/><path fill="rgb(107,174,214)" stroke="rgb(255,255,255)" paint-order="fill" d="M 280.8333319058778 39.24533858366186 A 157.3333282470703 157.3333282470703 0 0 0 44.83334350585997 175.50001375451694 L 202.1666717529297 175.5 Z" fill-opacity="1" clip-path="url(#fZuiiFXDrMVN)" stroke-opacity="1" stroke-linejoin="bevel" stroke-miterlimit="10" stroke-dasharray=""/><path fill="rgb(158,202,225)" stroke="rgb(255,255,255)" paint-order="fill" d="M 44.83334350585997 175.50001375451694 A 157.3333282470703 157.3333282470703 0 0 0 123.50002351174318 311.7546682935957 L 202.1666717529297 175.5 Z" fill-opacity="1" clip-path="url(#fZuiiFXDrMVN)" stroke-opacity="1" stroke-linejoin="bevel" stroke-miterlimit="10" stroke-dasharray=""/><path fill="rgb(198,219,239)" stroke="rgb(255,255,255)" paint-order="fill" d="M 123.50002351174318 311.7546682935957 A 157.3333282470703 157.3333282470703 0 0 0 359.4999999999976 175.4999724909661 L 202.1666717529297 175.5 Z" fill-opacity="1" clip-path="url(#fZuiiFXDrMVN)" stroke-opacity="1" stroke-linejoin="bevel" stroke-miterlimit="10" stroke-dasharray=""/><path fill="rgb(255,255,255)" stroke="rgb(229,229,229)" paint-order="fill" d="M 408.96665954589844 15.5 L 585.5 15.5 L 585.5 124.5 L 408.96665954589844 124.5 L 408.96665954589844 15.5" fill-opacity="0.9490196078431372" clip-path="url(#eeLcfFhNlqdp)" stroke-opacity="0.5019607843137255" stroke-linejoin="bevel" stroke-miterlimit="10" stroke-dasharray=""/><g clip-path="url(#eeLcfFhNlqdp)"><text fill="rgb(68,68,68)" stroke="none" font-family="helvetica" font-size="13px" font-style="normal" font-weight="normal" text-decoration="normal" x="443.46665954589844" y="35" text-anchor="start" dominant-baseline="central" transform="matrix(1, 0, 0, 1, 0.5, 0.5)" fill-opacity="1">Plaid Checking (x7aE)</text></g><path fill="rgb(49,130,189)" stroke="rgb(255,255,255)" paint-order="fill" d="M 420.96665954589844 27.5 L 436.96665954589844 27.5 L 436.96665954589844 43.5 L 420.96665954589844 43.5 L 420.96665954589844 27.5" fill-opacity="1" clip-path="url(#eeLcfFhNlqdp)" stroke-opacity="1" stroke-linejoin="bevel" stroke-miterlimit="10" stroke-dasharray=""/><g clip-path="url(#eeLcfFhNlqdp)"><text fill="rgb(68,68,68)" stroke="none" font-family="helvetica" font-size="13px" font-style="normal" font-weight="normal" text-decoration="normal" x="443.46665954589844" y="58" text-anchor="start" dominant-baseline="central" transform="matrix(1, 0, 0, 1, 0.5, 0.5)" fill-opacity="1">Plaid Saving (d5oG)</text></g><path fill="rgb(107,174,214)" stroke="rgb(255,255,255)" paint-order="fill" d="M 420.96665954589844 50.5 L 436.96665954589844 50.5 L 436.96665954589844 66.5 L 420.96665954589844 66.5 L 420.96665954589844 50.5" fill-opacity="1" clip-path="url(#eeLcfFhNlqdp)" stroke-opacity="1" stroke-linejoin="bevel" stroke-miterlimit="10" stroke-dasharray=""/><g clip-path="url(#eeLcfFhNlqdp)"><text fill="rgb(68,68,68)" stroke="none" font-family="helvetica" font-size="13px" font-style="normal" font-weight="normal" text-decoration="normal" x="443.46665954589844" y="81" text-anchor="start" dominant-baseline="central" transform="matrix(1, 0, 0, 1, 0.5, 0.5)" fill-opacity="1">Plaid Checking (M53n)</text></g><path fill="rgb(158,202,225)" stroke="rgb(255,255,255)" paint-order="fill" d="M 420.96665954589844 73.5 L 436.96665954589844 73.5 L 436.96665954589844 89.5 L 420.96665954589844 89.5 L 420.96665954589844 73.5" fill-opacity="1" clip-path="url(#eeLcfFhNlqdp)" stroke-opacity="1" stroke-linejoin="bevel" stroke-miterlimit="10" stroke-dasharray=""/><g clip-path="url(#eeLcfFhNlqdp)"><text fill="rgb(68,68,68)" stroke="none" font-family="helvetica" font-size="13px" font-style="normal" font-weight="normal" text-decoration="normal" x="443.46665954589844" y="104" text-anchor="start" dominant-baseline="central" transform="matrix(1, 0, 0, 1, 0.5, 0.5)" fill-opacity="1">Plaid Saving (11kA)</text></g><path fill="rgb(198,219,239)" stroke="rgb(255,255,255)" paint-order="fill" d="M 420.96665954589844 96.5 L 436.96665954589844 96.5 L 436.96665954589844 112.5 L 420.96665954589844 112.5 L 420.96665954589844 96.5" fill-opacity="1" clip-path="url(#eeLcfFhNlqdp)" stroke-opacity="1" stroke-linejoin="bevel" stroke-miterlimit="10" stroke-dasharray=""/><g clip-path="url(#QNdhwXXLduMU)"><text fill="rgb(0,0,0)" stroke="none" font-family="helvetica" font-size="10pt" font-style="normal" font-weight="normal" text-decoration="normal" x="262.7258358001709" y="129.55078125" text-anchor="start" dominant-baseline="alphabetic" transform="matrix(1, 0, 0, 1, 0.5, 0.5)" fill-opacity="1">$100.00</text></g><g clip-path="url(#QNdhwXXLduMU)"><text fill="rgb(0,0,0)" stroke="none" font-family="helvetica" font-size="10pt" font-style="normal" font-weight="normal" text-decoration="normal" x="128.39999961853027" y="98.4386215209961" text-anchor="start" dominant-baseline="alphabetic" transform="matrix(1, 0, 0, 1, 0.5, 0.5)" fill-opacity="1">$200.00</text></g><g clip-path="url(#QNdhwXXLduMU)"><text fill="rgb(0,0,0)" stroke="none" font-family="helvetica" font-size="10pt" font-style="normal" font-weight="normal" text-decoration="normal" x="92.40749931335449" y="214.55078125" text-anchor="start" dominant-baseline="alphabetic" transform="matrix(1, 0, 0, 1, 0.5, 0.5)" fill-opacity="1">$100.00</text></g><g clip-path="url(#QNdhwXXLduMU)"><text fill="rgb(0,0,0)" stroke="none" font-family="helvetica" font-size="10pt" font-style="normal" font-weight="normal" text-decoration="normal" x="226.7333278656006" y="245.66293334960938" text-anchor="start" dominant-baseline="alphabetic" transform="matrix(1, 0, 0, 1, 0.5, 0.5)" fill-opacity="1">$200.00</text></g></svg>