<?xml version="1.0" encoding="utf-8" standalone="no"?>
<!DOCTYPE svg PUBLIC "-//W3C//DTD SVG 1.1//EN"
  "http://www.w3.org/Graphics/SVG/1.1/DTD/svg11.dtd">
<svg xmlns:xlink="http://www.w3.org/1999/xlink" width="720pt" height="504pt" viewBox="0 0 720 504" xmlns="http://www.w3.org/2000/svg" version="1.1">
 <metadata>
  <rdf:RDF xmlns:dc="http://purl.org/dc/elements/1.1/" xmlns:cc="http://creativecommons.org/ns#" xmlns:rdf="http://www.w3.org/1999/02/22-rdf-syntax-ns#">
   <cc:Work>
    <dc:type rdf:resource="http://purl.org/dc/dcmitype/StillImage"/>
    <dc:date>2022-08-21T16:28:18.742521</dc:date>
    <dc:format>image/svg+xml</dc:format>
    <dc:creator>
     <cc:Agent>
      <dc:title>Matplotlib v3.5.3, https://matplotlib.org/</dc:title>
     </cc:Agent>
    </dc:creator>
   </cc:Work>
  </rdf:RDF>
 </metadata>
 <defs>
  <style type="text/css">*{stroke-linejoin: round; stroke-linecap: butt}</style>
 </defs>
 <g id="figure_1">
  <g id="patch_1">
   <path d="M 0 504 
L 720 504 
L 720 0 
L 0 0 
z
" style="fill: #ffffff"/>
  </g>
  <g id="axes_1">
   <g id="patch_2">
    <path d="M 369 99.288 
C 341.75312 99.288 314.980488 106.461706 291.383998 120.085146 
C 267.787508 133.708586 248.188581 153.307514 234.565142 176.904004 
L 369 254.52 
L 369 99.288 
z
" style="fill: #3182bd"/>
   </g>
   <g id="patch_3">
    <path d="M 234.565142 176.904004 
C 220.941703 200.500494 213.767999 227.273128 213.768 254.520007 
C 213.768001 281.766887 220.941708 308.539519 234.565149 332.136008 
C 248.188591 355.732497 267.78752 375.331424 291.38401 388.954862 
C 314.980501 402.578299 341.753135 409.752003 369.000015 409.752 
L 369 254.52 
L 234.565142 176.904004 
z
" style="fill: #6baed6"/>
   </g>
   <g id="patch_4">
    <path d="M 369.000015 409.752 
C 396.246894 409.751997 423.019526 402.578289 446.616015 388.954847 
C 470.212503 375.331405 489.811428 355.732475 503.434865 332.135983 
L 369 254.52 
L 369.000015 409.752 
z
" style="fill: #9ecae1"/>
   </g>
   <g id="patch_5">
    <path d="M 503.434865 332.135983 
C 517.058302 308.539492 524.232004 281.766858 524.232 254.519978 
C 524.231996 227.273099 517.058287 200.500467 503.434843 176.903979 
C 489.8114 153.307491 470.212469 133.708567 446.615977 120.085131 
C 423.019485 106.461695 396.24685 99.287995 368.999971 99.288 
L 369 254.52 
L 503.434865 332.135983 
z
" style="fill: #c6dbef"/>
   </g>
   <g id="matplotlib.axis_1"/>
   <g id="matplotlib.axis_2"/>
   <g id="text_1">
    <!-- Plaid Checking -->
    <g transform="translate(210.15521 109.401035)scale(0.1 -0.1)">
     <defs>
      <path id="DejaVuSans-50" d="M 1259 4147 
L 1259 2394 
L 2053 2394 
Q 2494 2394 2734 2622 
Q 2975 2850 2975 3272 
Q 2975 3691 2734 3919 
Q 2494 4147 2053 4147 
L 1259 4147 
z
M 628 4666 
L 2053 4666 
Q 2838 4666 3239 4311 
Q 3641 3956 3641 3272 
Q 3641 2581 3239 2228 
Q 2838 1875 2053 1875 
L 1259 1875 
L 1259 0 
L 628 0 
L 628 4666 
z
" transform="scale(0.015625)"/>
      <path id="DejaVuSans-6c" d="M 603 4863 
L 1178 4863 
L 1178 0 
L 603 0 
L 603 4863 
z
" transform="scale(0.015625)"/>
      <path id="DejaVuSans-61" d="M 2194 1759 
Q 1497 1759 1228 1600 
Q 959 1441 959 1056 
Q 959 750 1161 570 
Q 1363 391 1709 391 
Q 2188 391 2477 730 
Q 2766 1069 2766 1631 
L 2766 1759 
L 2194 1759 
z
M 3341 1997 
L 3341 0 
L 2766 0 
L 2766 531 
Q 2569 213 2275 61 
Q 1981 -91 1556 -91 
Q 1019 -91 701 211 
Q 384 513 384 1019 
Q 384 1609 779 1909 
Q 1175 2209 1959 2209 
L 2766 2209 
L 2766 2266 
Q 2766 2663 2505 2880 
Q 2244 3097 1772 3097 
Q 1472 3097 1187 3025 
Q 903 2953 641 2809 
L 641 3341 
Q 956 3463 1253 3523 
Q 1550 3584 1831 3584 
Q 2591 3584 2966 3190 
Q 3341 2797 3341 1997 
z
" transform="scale(0.015625)"/>
      <path id="DejaVuSans-69" d="M 603 3500 
L 1178 3500 
L 1178 0 
L 603 0 
L 603 3500 
z
M 603 4863 
L 1178 4863 
L 1178 4134 
L 603 4134 
L 603 4863 
z
" transform="scale(0.015625)"/>
      <path id="DejaVuSans-64" d="M 2906 2969 
L 2906 4863 
L 3481 4863 
L 3481 0 
L 2906 0 
L 2906 525 
Q 2725 213 2448 61 
Q 2172 -91 1784 -91 
Q 1150 -91 751 415 
Q 353 922 353 1747 
Q 353 2572 751 3078 
Q 1150 3584 1784 3584 
Q 2172 3584 2448 3432 
Q 2725 3281 2906 2969 
z
M 947 1747 
Q 947 1113 1208 752 
Q 1469 391 1925 391 
Q 2381 391 2643 752 
Q 2906 1113 2906 1747 
Q 2906 2381 2643 2742 
Q 2381 3103 1925 3103 
Q 1469 3103 1208 2742 
Q 947 2381 947 1747 
z
" transform="scale(0.015625)"/>
      <path id="DejaVuSans-20" transform="scale(0.015625)"/>
      <path id="DejaVuSans-43" d="M 4122 4306 
L 4122 3641 
Q 3803 3938 3442 4084 
Q 3081 4231 2675 4231 
Q 1875 4231 1450 3742 
Q 1025 3253 1025 2328 
Q 1025 1406 1450 917 
Q 1875 428 2675 428 
Q 3081 428 3442 575 
Q 3803 722 4122 1019 
L 4122 359 
Q 3791 134 3420 21 
Q 3050 -91 2638 -91 
Q 1578 -91 968 557 
Q 359 1206 359 2328 
Q 359 3453 968 4101 
Q 1578 4750 2638 4750 
Q 3056 4750 3426 4639 
Q 3797 4528 4122 4306 
z
" transform="scale(0.015625)"/>
      <path id="DejaVuSans-68" d="M 3513 2113 
L 3513 0 
L 2938 0 
L 2938 2094 
Q 2938 2591 2744 2837 
Q 2550 3084 2163 3084 
Q 1697 3084 1428 2787 
Q 1159 2491 1159 1978 
L 1159 0 
L 581 0 
L 581 4863 
L 1159 4863 
L 1159 2956 
Q 1366 3272 1645 3428 
Q 1925 3584 2291 3584 
Q 2894 3584 3203 3211 
Q 3513 2838 3513 2113 
z
" transform="scale(0.015625)"/>
      <path id="DejaVuSans-65" d="M 3597 1894 
L 3597 1613 
L 953 1613 
Q 991 1019 1311 708 
Q 1631 397 2203 397 
Q 2534 397 2845 478 
Q 3156 559 3463 722 
L 3463 178 
Q 3153 47 2828 -22 
Q 2503 -91 2169 -91 
Q 1331 -91 842 396 
Q 353 884 353 1716 
Q 353 2575 817 3079 
Q 1281 3584 2069 3584 
Q 2775 3584 3186 3129 
Q 3597 2675 3597 1894 
z
M 3022 2063 
Q 3016 2534 2758 2815 
Q 2500 3097 2075 3097 
Q 1594 3097 1305 2825 
Q 1016 2553 972 2059 
L 3022 2063 
z
" transform="scale(0.015625)"/>
      <path id="DejaVuSans-63" d="M 3122 3366 
L 3122 2828 
Q 2878 2963 2633 3030 
Q 2388 3097 2138 3097 
Q 1578 3097 1268 2742 
Q 959 2388 959 1747 
Q 959 1106 1268 751 
Q 1578 397 2138 397 
Q 2388 397 2633 464 
Q 2878 531 3122 666 
L 3122 134 
Q 2881 22 2623 -34 
Q 2366 -91 2075 -91 
Q 1284 -91 818 406 
Q 353 903 353 1747 
Q 353 2603 823 3093 
Q 1294 3584 2113 3584 
Q 2378 3584 2631 3529 
Q 2884 3475 3122 3366 
z
" transform="scale(0.015625)"/>
      <path id="DejaVuSans-6b" d="M 581 4863 
L 1159 4863 
L 1159 1991 
L 2875 3500 
L 3609 3500 
L 1753 1863 
L 3688 0 
L 2938 0 
L 1159 1709 
L 1159 0 
L 581 0 
L 581 4863 
z
" transform="scale(0.015625)"/>
      <path id="DejaVuSans-6e" d="M 3513 2113 
L 3513 0 
L 2938 0 
L 2938 2094 
Q 2938 2591 2744 2837 
Q 2550 3084 2163 3084 
Q 1697 3084 1428 2787 
Q 1159 2491 1159 1978 
L 1159 0 
L 581 0 
L 581 3500 
L 1159 3500 
L 1159 2956 
Q 1366 3272 1645 3428 
Q 1925 3584 2291 3584 
Q 2894 3584 3203 3211 
Q 3513 2838 3513 2113 
z
" transform="scale(0.015625)"/>
      <path id="DejaVuSans-67" d="M 2906 1791 
Q 2906 2416 2648 2759 
Q 2391 3103 1925 3103 
Q 1463 3103 1205 2759 
Q 947 2416 947 1791 
Q 947 1169 1205 825 
Q 1463 481 1925 481 
Q 2391 481 2648 825 
Q 2906 1169 2906 1791 
z
M 3481 434 
Q 3481 -459 3084 -895 
Q 2688 -1331 1869 -1331 
Q 1566 -1331 1297 -1286 
Q 1028 -1241 775 -1147 
L 775 -588 
Q 1028 -725 1275 -790 
Q 1522 -856 1778 -856 
Q 2344 -856 2625 -561 
Q 2906 -266 2906 331 
L 2906 616 
Q 2728 306 2450 153 
Q 2172 0 1784 0 
Q 1141 0 747 490 
Q 353 981 353 1791 
Q 353 2603 747 3093 
Q 1141 3584 1784 3584 
Q 2172 3584 2450 3431 
Q 2728 3278 2906 2969 
L 2906 3500 
L 3481 3500 
L 3481 434 
z
" transform="scale(0.015625)"/>
     </defs>
     <use xlink:href="#DejaVuSans-50"/>
     <use xlink:href="#DejaVuSans-6c" x="60.302734"/>
     <use xlink:href="#DejaVuSans-61" x="88.085938"/>
     <use xlink:href="#DejaVuSans-69" x="149.365234"/>
     <use xlink:href="#DejaVuSans-64" x="177.148438"/>
     <use xlink:href="#DejaVuSans-20" x="240.625"/>
     <use xlink:href="#DejaVuSans-43" x="272.412109"/>
     <use xlink:href="#DejaVuSans-68" x="342.236328"/>
     <use xlink:href="#DejaVuSans-65" x="405.615234"/>
     <use xlink:href="#DejaVuSans-63" x="467.138672"/>
     <use xlink:href="#DejaVuSans-6b" x="522.119141"/>
     <use xlink:href="#DejaVuSans-69" x="580.029297"/>
     <use xlink:href="#DejaVuSans-6e" x="607.8125"/>
     <use xlink:href="#DejaVuSans-67" x="671.191406"/>
    </g>
   </g>
   <g id="text_2">
    <!-- $100.00 -->
    <g transform="translate(304.212274 176.066587)scale(0.08 -0.08)">
     <defs>
      <path id="DejaVuSans-Bold-24" d="M 2484 -941 
L 1978 -941 
L 1975 0 
Q 1584 16 1218 87 
Q 853 159 506 288 
L 506 1106 
Q 866 922 1233 823 
Q 1600 725 1978 713 
L 1978 1684 
L 1875 1703 
Q 1128 1834 814 2115 
Q 500 2397 500 2925 
Q 500 3484 883 3798 
Q 1266 4113 1975 4141 
L 1978 4863 
L 2484 4863 
L 2484 4153 
Q 2797 4128 3109 4075 
Q 3422 4022 3738 3938 
L 3738 3144 
Q 3425 3275 3112 3348 
Q 2800 3422 2484 3438 
L 2484 2541 
L 2584 2522 
Q 3378 2397 3698 2105 
Q 4019 1813 4019 1241 
Q 4019 666 3637 358 
Q 3256 50 2484 6 
L 2484 -941 
z
M 1978 2613 
L 1978 3428 
Q 1756 3416 1623 3308 
Q 1491 3200 1491 3034 
Q 1491 2850 1612 2745 
Q 1734 2641 1978 2613 
z
M 2484 1594 
L 2484 725 
Q 2756 728 2892 831 
Q 3028 934 3028 1141 
Q 3028 1353 2903 1458 
Q 2778 1563 2484 1594 
z
" transform="scale(0.015625)"/>
      <path id="DejaVuSans-Bold-31" d="M 750 831 
L 1813 831 
L 1813 3847 
L 722 3622 
L 722 4441 
L 1806 4666 
L 2950 4666 
L 2950 831 
L 4013 831 
L 4013 0 
L 750 0 
L 750 831 
z
" transform="scale(0.015625)"/>
      <path id="DejaVuSans-Bold-30" d="M 2944 2338 
Q 2944 3213 2780 3570 
Q 2616 3928 2228 3928 
Q 1841 3928 1675 3570 
Q 1509 3213 1509 2338 
Q 1509 1453 1675 1090 
Q 1841 728 2228 728 
Q 2613 728 2778 1090 
Q 2944 1453 2944 2338 
z
M 4147 2328 
Q 4147 1169 3647 539 
Q 3147 -91 2228 -91 
Q 1306 -91 806 539 
Q 306 1169 306 2328 
Q 306 3491 806 4120 
Q 1306 4750 2228 4750 
Q 3147 4750 3647 4120 
Q 4147 3491 4147 2328 
z
" transform="scale(0.015625)"/>
      <path id="DejaVuSans-Bold-2e" d="M 653 1209 
L 1778 1209 
L 1778 0 
L 653 0 
L 653 1209 
z
" transform="scale(0.015625)"/>
     </defs>
     <use xlink:href="#DejaVuSans-Bold-24"/>
     <use xlink:href="#DejaVuSans-Bold-31" x="69.580078"/>
     <use xlink:href="#DejaVuSans-Bold-30" x="139.160156"/>
     <use xlink:href="#DejaVuSans-Bold-30" x="208.740234"/>
     <use xlink:href="#DejaVuSans-Bold-2e" x="278.320312"/>
     <use xlink:href="#DejaVuSans-Bold-30" x="316.308594"/>
     <use xlink:href="#DejaVuSans-Bold-30" x="385.888672"/>
    </g>
   </g>
   <g id="text_3">
    <!-- Plaid Saving -->
    <g transform="translate(160.021664 342.656984)scale(0.1 -0.1)">
     <defs>
      <path id="DejaVuSans-53" d="M 3425 4513 
L 3425 3897 
Q 3066 4069 2747 4153 
Q 2428 4238 2131 4238 
Q 1616 4238 1336 4038 
Q 1056 3838 1056 3469 
Q 1056 3159 1242 3001 
Q 1428 2844 1947 2747 
L 2328 2669 
Q 3034 2534 3370 2195 
Q 3706 1856 3706 1288 
Q 3706 609 3251 259 
Q 2797 -91 1919 -91 
Q 1588 -91 1214 -16 
Q 841 59 441 206 
L 441 856 
Q 825 641 1194 531 
Q 1563 422 1919 422 
Q 2459 422 2753 634 
Q 3047 847 3047 1241 
Q 3047 1584 2836 1778 
Q 2625 1972 2144 2069 
L 1759 2144 
Q 1053 2284 737 2584 
Q 422 2884 422 3419 
Q 422 4038 858 4394 
Q 1294 4750 2059 4750 
Q 2388 4750 2728 4690 
Q 3069 4631 3425 4513 
z
" transform="scale(0.015625)"/>
      <path id="DejaVuSans-76" d="M 191 3500 
L 800 3500 
L 1894 563 
L 2988 3500 
L 3597 3500 
L 2284 0 
L 1503 0 
L 191 3500 
z
" transform="scale(0.015625)"/>
     </defs>
     <use xlink:href="#DejaVuSans-50"/>
     <use xlink:href="#DejaVuSans-6c" x="60.302734"/>
     <use xlink:href="#DejaVuSans-61" x="88.085938"/>
     <use xlink:href="#DejaVuSans-69" x="149.365234"/>
     <use xlink:href="#DejaVuSans-64" x="177.148438"/>
     <use xlink:href="#DejaVuSans-20" x="240.625"/>
     <use xlink:href="#DejaVuSans-53" x="272.412109"/>
     <use xlink:href="#DejaVuSans-61" x="335.888672"/>
     <use xlink:href="#DejaVuSans-76" x="397.167969"/>
     <use xlink:href="#DejaVuSans-69" x="456.347656"/>
     <use xlink:href="#DejaVuSans-6e" x="484.130859"/>
     <use xlink:href="#DejaVuSans-67" x="547.509766"/>
    </g>
   </g>
   <g id="text_4">
    <!-- $200.00 -->
    <g transform="translate(270.120965 303.297105)scale(0.08 -0.08)">
     <defs>
      <path id="DejaVuSans-Bold-32" d="M 1844 884 
L 3897 884 
L 3897 0 
L 506 0 
L 506 884 
L 2209 2388 
Q 2438 2594 2547 2791 
Q 2656 2988 2656 3200 
Q 2656 3528 2436 3728 
Q 2216 3928 1850 3928 
Q 1569 3928 1234 3808 
Q 900 3688 519 3450 
L 519 4475 
Q 925 4609 1322 4679 
Q 1719 4750 2100 4750 
Q 2938 4750 3402 4381 
Q 3866 4013 3866 3353 
Q 3866 2972 3669 2642 
Q 3472 2313 2841 1759 
L 1844 884 
z
" transform="scale(0.015625)"/>
     </defs>
     <use xlink:href="#DejaVuSans-Bold-24"/>
     <use xlink:href="#DejaVuSans-Bold-32" x="69.580078"/>
     <use xlink:href="#DejaVuSans-Bold-30" x="139.160156"/>
     <use xlink:href="#DejaVuSans-Bold-30" x="208.740234"/>
     <use xlink:href="#DejaVuSans-Bold-2e" x="278.320312"/>
     <use xlink:href="#DejaVuSans-Bold-30" x="316.308594"/>
     <use xlink:href="#DejaVuSans-Bold-30" x="385.888672"/>
    </g>
   </g>
   <g id="text_5">
    <!-- Plaid Checking -->
    <g transform="translate(454.377616 405.157707)scale(0.1 -0.1)">
     <use xlink:href="#DejaVuSans-50"/>
     <use xlink:href="#DejaVuSans-6c" x="60.302734"/>
     <use xlink:href="#DejaVuSans-61" x="88.085938"/>
     <use xlink:href="#DejaVuSans-69" x="149.365234"/>
     <use xlink:href="#DejaVuSans-64" x="177.148438"/>
     <use xlink:href="#DejaVuSans-20" x="240.625"/>
     <use xlink:href="#DejaVuSans-43" x="272.412109"/>
     <use xlink:href="#DejaVuSans-68" x="342.236328"/>
     <use xlink:href="#DejaVuSans-65" x="405.615234"/>
     <use xlink:href="#DejaVuSans-63" x="467.138672"/>
     <use xlink:href="#DejaVuSans-6b" x="522.119141"/>
     <use xlink:href="#DejaVuSans-69" x="580.029297"/>
     <use xlink:href="#DejaVuSans-6e" x="607.8125"/>
     <use xlink:href="#DejaVuSans-67" x="671.191406"/>
    </g>
   </g>
   <g id="text_6">
    <!-- $100.00 -->
    <g transform="translate(397.351484 337.388408)scale(0.08 -0.08)">
     <use xlink:href="#DejaVuSans-Bold-24"/>
     <use xlink:href="#DejaVuSans-Bold-31" x="69.580078"/>
     <use xlink:href="#DejaVuSans-Bold-30" x="139.160156"/>
     <use xlink:href="#DejaVuSans-Bold-30" x="208.740234"/>
     <use xlink:href="#DejaVuSans-Bold-2e" x="278.320312"/>
     <use xlink:href="#DejaVuSans-Bold-30" x="316.308594"/>
     <use xlink:href="#DejaVuSans-Bold-30" x="385.888672"/>
    </g>
   </g>
   <g id="text_7">
    <!-- Plaid Saving -->
    <g transform="translate(516.878328 171.901752)scale(0.1 -0.1)">
     <use xlink:href="#DejaVuSans-50"/>
     <use xlink:href="#DejaVuSans-6c" x="60.302734"/>
     <use xlink:href="#DejaVuSans-61" x="88.085938"/>
     <use xlink:href="#DejaVuSans-69" x="149.365234"/>
     <use xlink:href="#DejaVuSans-64" x="177.148438"/>
     <use xlink:href="#DejaVuSans-20" x="240.625"/>
     <use xlink:href="#DejaVuSans-53" x="272.412109"/>
     <use xlink:href="#DejaVuSans-61" x="335.888672"/>
     <use xlink:href="#DejaVuSans-76" x="397.167969"/>
     <use xlink:href="#DejaVuSans-69" x="456.347656"/>
     <use xlink:href="#DejaVuSans-6e" x="484.130859"/>
     <use xlink:href="#DejaVuSans-67" x="547.509766"/>
    </g>
   </g>
   <g id="text_8">
    <!-- $200.00 -->
    <g transform="translate(431.442781 210.157887)scale(0.08 -0.08)">
     <use xlink:href="#DejaVuSans-Bold-24"/>
     <use xlink:href="#DejaVuSans-Bold-32" x="69.580078"/>
     <use xlink:href="#DejaVuSans-Bold-30" x="139.160156"/>
     <use xlink:href="#DejaVuSans-Bold-30" x="208.740234"/>
     <use xlink:href="#DejaVuSans-Bold-2e" x="278.320312"/>
     <use xlink:href="#DejaVuSans-Bold-30" x="316.308594"/>
     <use xlink:href="#DejaVuSans-Bold-30" x="385.888672"/>
    </g>
   </g>
   <g id="text_9">
    <!-- Account Balances Overview -->
    <g transform="translate(285.654375 54.48)scale(0.12 -0.12)">
     <defs>
      <path id="DejaVuSans-41" d="M 2188 4044 
L 1331 1722 
L 3047 1722 
L 2188 4044 
z
M 1831 4666 
L 2547 4666 
L 4325 0 
L 3669 0 
L 3244 1197 
L 1141 1197 
L 716 0 
L 50 0 
L 1831 4666 
z
" transform="scale(0.015625)"/>
      <path id="DejaVuSans-6f" d="M 1959 3097 
Q 1497 3097 1228 2736 
Q 959 2375 959 1747 
Q 959 1119 1226 758 
Q 1494 397 1959 397 
Q 2419 397 2687 759 
Q 2956 1122 2956 1747 
Q 2956 2369 2687 2733 
Q 2419 3097 1959 3097 
z
M 1959 3584 
Q 2709 3584 3137 3096 
Q 3566 2609 3566 1747 
Q 3566 888 3137 398 
Q 2709 -91 1959 -91 
Q 1206 -91 779 398 
Q 353 888 353 1747 
Q 353 2609 779 3096 
Q 1206 3584 1959 3584 
z
" transform="scale(0.015625)"/>
      <path id="DejaVuSans-75" d="M 544 1381 
L 544 3500 
L 1119 3500 
L 1119 1403 
Q 1119 906 1312 657 
Q 1506 409 1894 409 
Q 2359 409 2629 706 
Q 2900 1003 2900 1516 
L 2900 3500 
L 3475 3500 
L 3475 0 
L 2900 0 
L 2900 538 
Q 2691 219 2414 64 
Q 2138 -91 1772 -91 
Q 1169 -91 856 284 
Q 544 659 544 1381 
z
M 1991 3584 
L 1991 3584 
z
" transform="scale(0.015625)"/>
      <path id="DejaVuSans-74" d="M 1172 4494 
L 1172 3500 
L 2356 3500 
L 2356 3053 
L 1172 3053 
L 1172 1153 
Q 1172 725 1289 603 
Q 1406 481 1766 481 
L 2356 481 
L 2356 0 
L 1766 0 
Q 1100 0 847 248 
Q 594 497 594 1153 
L 594 3053 
L 172 3053 
L 172 3500 
L 594 3500 
L 594 4494 
L 1172 4494 
z
" transform="scale(0.015625)"/>
      <path id="DejaVuSans-42" d="M 1259 2228 
L 1259 519 
L 2272 519 
Q 2781 519 3026 730 
Q 3272 941 3272 1375 
Q 3272 1813 3026 2020 
Q 2781 2228 2272 2228 
L 1259 2228 
z
M 1259 4147 
L 1259 2741 
L 2194 2741 
Q 2656 2741 2882 2914 
Q 3109 3088 3109 3444 
Q 3109 3797 2882 3972 
Q 2656 4147 2194 4147 
L 1259 4147 
z
M 628 4666 
L 2241 4666 
Q 2963 4666 3353 4366 
Q 3744 4066 3744 3513 
Q 3744 3084 3544 2831 
Q 3344 2578 2956 2516 
Q 3422 2416 3680 2098 
Q 3938 1781 3938 1306 
Q 3938 681 3513 340 
Q 3088 0 2303 0 
L 628 0 
L 628 4666 
z
" transform="scale(0.015625)"/>
      <path id="DejaVuSans-73" d="M 2834 3397 
L 2834 2853 
Q 2591 2978 2328 3040 
Q 2066 3103 1784 3103 
Q 1356 3103 1142 2972 
Q 928 2841 928 2578 
Q 928 2378 1081 2264 
Q 1234 2150 1697 2047 
L 1894 2003 
Q 2506 1872 2764 1633 
Q 3022 1394 3022 966 
Q 3022 478 2636 193 
Q 2250 -91 1575 -91 
Q 1294 -91 989 -36 
Q 684 19 347 128 
L 347 722 
Q 666 556 975 473 
Q 1284 391 1588 391 
Q 1994 391 2212 530 
Q 2431 669 2431 922 
Q 2431 1156 2273 1281 
Q 2116 1406 1581 1522 
L 1381 1569 
Q 847 1681 609 1914 
Q 372 2147 372 2553 
Q 372 3047 722 3315 
Q 1072 3584 1716 3584 
Q 2034 3584 2315 3537 
Q 2597 3491 2834 3397 
z
" transform="scale(0.015625)"/>
      <path id="DejaVuSans-4f" d="M 2522 4238 
Q 1834 4238 1429 3725 
Q 1025 3213 1025 2328 
Q 1025 1447 1429 934 
Q 1834 422 2522 422 
Q 3209 422 3611 934 
Q 4013 1447 4013 2328 
Q 4013 3213 3611 3725 
Q 3209 4238 2522 4238 
z
M 2522 4750 
Q 3503 4750 4090 4092 
Q 4678 3434 4678 2328 
Q 4678 1225 4090 567 
Q 3503 -91 2522 -91 
Q 1538 -91 948 565 
Q 359 1222 359 2328 
Q 359 3434 948 4092 
Q 1538 4750 2522 4750 
z
" transform="scale(0.015625)"/>
      <path id="DejaVuSans-72" d="M 2631 2963 
Q 2534 3019 2420 3045 
Q 2306 3072 2169 3072 
Q 1681 3072 1420 2755 
Q 1159 2438 1159 1844 
L 1159 0 
L 581 0 
L 581 3500 
L 1159 3500 
L 1159 2956 
Q 1341 3275 1631 3429 
Q 1922 3584 2338 3584 
Q 2397 3584 2469 3576 
Q 2541 3569 2628 3553 
L 2631 2963 
z
" transform="scale(0.015625)"/>
      <path id="DejaVuSans-77" d="M 269 3500 
L 844 3500 
L 1563 769 
L 2278 3500 
L 2956 3500 
L 3675 769 
L 4391 3500 
L 4966 3500 
L 4050 0 
L 3372 0 
L 2619 2869 
L 1863 0 
L 1184 0 
L 269 3500 
z
" transform="scale(0.015625)"/>
     </defs>
     <use xlink:href="#DejaVuSans-41"/>
     <use xlink:href="#DejaVuSans-63" x="66.658203"/>
     <use xlink:href="#DejaVuSans-63" x="121.638672"/>
     <use xlink:href="#DejaVuSans-6f" x="176.619141"/>
     <use xlink:href="#DejaVuSans-75" x="237.800781"/>
     <use xlink:href="#DejaVuSans-6e" x="301.179688"/>
     <use xlink:href="#DejaVuSans-74" x="364.558594"/>
     <use xlink:href="#DejaVuSans-20" x="403.767578"/>
     <use xlink:href="#DejaVuSans-42" x="435.554688"/>
     <use xlink:href="#DejaVuSans-61" x="504.158203"/>
     <use xlink:href="#DejaVuSans-6c" x="565.4375"/>
     <use xlink:href="#DejaVuSans-61" x="593.220703"/>
     <use xlink:href="#DejaVuSans-6e" x="654.5"/>
     <use xlink:href="#DejaVuSans-63" x="717.878906"/>
     <use xlink:href="#DejaVuSans-65" x="772.859375"/>
     <use xlink:href="#DejaVuSans-73" x="834.382812"/>
     <use xlink:href="#DejaVuSans-20" x="886.482422"/>
     <use xlink:href="#DejaVuSans-4f" x="918.269531"/>
     <use xlink:href="#DejaVuSans-76" x="996.980469"/>
     <use xlink:href="#DejaVuSans-65" x="1056.160156"/>
     <use xlink:href="#DejaVuSans-72" x="1117.683594"/>
     <use xlink:href="#DejaVuSans-76" x="1158.796875"/>
     <use xlink:href="#DejaVuSans-69" x="1217.976562"/>
     <use xlink:href="#DejaVuSans-65" x="1245.759766"/>
     <use xlink:href="#DejaVuSans-77" x="1307.283203"/>
    </g>
   </g>
   <g id="legend_1">
    <g id="patch_6">
     <path d="M 570.04 292.715313 
L 675.507187 292.715313 
Q 677.507187 292.715313 677.507187 290.715313 
L 677.507187 218.324688 
Q 677.507187 216.324688 675.507187 216.324688 
L 570.04 216.324688 
Q 568.04 216.324688 568.04 218.324688 
L 568.04 290.715313 
Q 568.04 292.715313 570.04 292.715313 
z
" style="fill: #ffffff; opacity: 0.8; stroke: #cccccc; stroke-linejoin: miter"/>
    </g>
    <g id="text_10">
     <!-- Accounts -->
     <g transform="translate(599.980625 227.923125)scale(0.1 -0.1)">
      <use xlink:href="#DejaVuSans-41"/>
      <use xlink:href="#DejaVuSans-63" x="66.658203"/>
      <use xlink:href="#DejaVuSans-63" x="121.638672"/>
      <use xlink:href="#DejaVuSans-6f" x="176.619141"/>
      <use xlink:href="#DejaVuSans-75" x="237.800781"/>
      <use xlink:href="#DejaVuSans-6e" x="301.179688"/>
      <use xlink:href="#DejaVuSans-74" x="364.558594"/>
      <use xlink:href="#DejaVuSans-73" x="403.767578"/>
     </g>
    </g>
    <g id="patch_7">
     <path d="M 572.04 242.60125 
L 592.04 242.60125 
L 592.04 235.60125 
L 572.04 235.60125 
z
" style="fill: #3182bd"/>
    </g>
    <g id="text_11">
     <!-- Plaid Checking -->
     <g transform="translate(600.04 242.60125)scale(0.1 -0.1)">
      <use xlink:href="#DejaVuSans-50"/>
      <use xlink:href="#DejaVuSans-6c" x="60.302734"/>
      <use xlink:href="#DejaVuSans-61" x="88.085938"/>
      <use xlink:href="#DejaVuSans-69" x="149.365234"/>
      <use xlink:href="#DejaVuSans-64" x="177.148438"/>
      <use xlink:href="#DejaVuSans-20" x="240.625"/>
      <use xlink:href="#DejaVuSans-43" x="272.412109"/>
      <use xlink:href="#DejaVuSans-68" x="342.236328"/>
      <use xlink:href="#DejaVuSans-65" x="405.615234"/>
      <use xlink:href="#DejaVuSans-63" x="467.138672"/>
      <use xlink:href="#DejaVuSans-6b" x="522.119141"/>
      <use xlink:href="#DejaVuSans-69" x="580.029297"/>
      <use xlink:href="#DejaVuSans-6e" x="607.8125"/>
      <use xlink:href="#DejaVuSans-67" x="671.191406"/>
     </g>
    </g>
    <g id="patch_8">
     <path d="M 572.04 257.279375 
L 592.04 257.279375 
L 592.04 250.279375 
L 572.04 250.279375 
z
" style="fill: #6baed6"/>
    </g>
    <g id="text_12">
     <!-- Plaid Saving -->
     <g transform="translate(600.04 257.279375)scale(0.1 -0.1)">
      <use xlink:href="#DejaVuSans-50"/>
      <use xlink:href="#DejaVuSans-6c" x="60.302734"/>
      <use xlink:href="#DejaVuSans-61" x="88.085938"/>
      <use xlink:href="#DejaVuSans-69" x="149.365234"/>
      <use xlink:href="#DejaVuSans-64" x="177.148438"/>
      <use xlink:href="#DejaVuSans-20" x="240.625"/>
      <use xlink:href="#DejaVuSans-53" x="272.412109"/>
      <use xlink:href="#DejaVuSans-61" x="335.888672"/>
      <use xlink:href="#DejaVuSans-76" x="397.167969"/>
      <use xlink:href="#DejaVuSans-69" x="456.347656"/>
      <use xlink:href="#DejaVuSans-6e" x="484.130859"/>
      <use xlink:href="#DejaVuSans-67" x="547.509766"/>
     </g>
    </g>
    <g id="patch_9">
     <path d="M 572.04 271.9575 
L 592.04 271.9575 
L 592.04 264.9575 
L 572.04 264.9575 
z
" style="fill: #9ecae1"/>
    </g>
    <g id="text_13">
     <!-- Plaid Checking -->
     <g transform="translate(600.04 271.9575)scale(0.1 -0.1)">
      <use xlink:href="#DejaVuSans-50"/>
      <use xlink:href="#DejaVuSans-6c" x="60.302734"/>
      <use xlink:href="#DejaVuSans-61" x="88.085938"/>
      <use xlink:href="#DejaVuSans-69" x="149.365234"/>
      <use xlink:href="#DejaVuSans-64" x="177.148438"/>
      <use xlink:href="#DejaVuSans-20" x="240.625"/>
      <use xlink:href="#DejaVuSans-43" x="272.412109"/>
      <use xlink:href="#DejaVuSans-68" x="342.236328"/>
      <use xlink:href="#DejaVuSans-65" x="405.615234"/>
      <use xlink:href="#DejaVuSans-63" x="467.138672"/>
      <use xlink:href="#DejaVuSans-6b" x="522.119141"/>
      <use xlink:href="#DejaVuSans-69" x="580.029297"/>
      <use xlink:href="#DejaVuSans-6e" x="607.8125"/>
      <use xlink:href="#DejaVuSans-67" x="671.191406"/>
     </g>
    </g>
    <g id="patch_10">
     <path d="M 572.04 286.635625 
L 592.04 286.635625 
L 592.04 279.635625 
L 572.04 279.635625 
z
" style="fill: #c6dbef"/>
    </g>
    <g id="text_14">
     <!-- Plaid Saving -->
     <g transform="translate(600.04 286.635625)scale(0.1 -0.1)">
      <use xlink:href="#DejaVuSans-50"/>
      <use xlink:href="#DejaVuSans-6c" x="60.302734"/>
      <use xlink:href="#DejaVuSans-61" x="88.085938"/>
      <use xlink:href="#DejaVuSans-69" x="149.365234"/>
      <use xlink:href="#DejaVuSans-64" x="177.148438"/>
      <use xlink:href="#DejaVuSans-20" x="240.625"/>
      <use xlink:href="#DejaVuSans-53" x="272.412109"/>
      <use xlink:href="#DejaVuSans-61" x="335.888672"/>
      <use xlink:href="#DejaVuSans-76" x="397.167969"/>
      <use xlink:href="#DejaVuSans-69" x="456.347656"/>
      <use xlink:href="#DejaVuSans-6e" x="484.130859"/>
      <use xlink:href="#DejaVuSans-67" x="547.509766"/>
     </g>
    </g>
   </g>
  </g>
 </g>
</svg>
